<svg width="39" height="38" viewBox="0 0 39 38" fill="none" xmlns="http://www.w3.org/2000/svg">
<path fill-rule="evenodd" clip-rule="evenodd" d="M33.8438 19C33.8449 22.2216 32.7398 25.3459 30.7133 27.8504C28.6868 30.3549 25.8619 32.0876 22.711 32.7588C19.56 33.4299 16.2742 32.9989 13.403 31.5376C10.5318 30.0764 8.24939 27.6737 6.9375 24.7312L2.59063 26.4969C4.31382 30.4452 7.34385 33.6798 11.1713 35.657C14.9988 37.6341 19.3902 38.2332 23.6074 37.3536C27.8246 36.4739 31.6104 34.1691 34.3282 30.8267C37.046 27.4842 38.5302 23.308 38.5312 19C38.5314 15.0867 37.3072 11.2713 35.0301 8.08874C32.7529 4.90614 29.5371 2.51579 25.8332 1.25268C22.1293 -0.0104347 18.123 -0.0829905 14.3759 1.04518C10.6287 2.17335 7.32837 4.44569 4.9375 7.54375V1.8125H0.25V14.3125L2.59375 16.6562H13.5312V11.9687H7.6C9.14721 9.28647 11.5365 7.18987 14.397 6.00428C17.2576 4.81869 20.4295 4.61041 23.4205 5.41177C26.4116 6.21313 29.0545 7.97932 30.9391 10.4362C32.8238 12.8932 33.8448 15.9035 33.8438 19V19Z" fill="#049B02"/>
</svg>
